<svg version="1.1" id="Layer_1" xmlns="http://www.w3.org/2000/svg" xmlns:xlink="http://www.w3.org/1999/xlink" x="0px" y="0px"
	 viewBox="0 0 541 397" style="enable-background:new 0 0 541 397;" xml:space="preserve">
<style type="text/css">
	.st0{fill:#FFEFEF;}
</style>
<path class="st0" d="M447.9,198.2c0,93.9-76.1,170-170,170s-170-76.1-170-170s76.1-170,170-170l0,0
	C371.8,28,447.9,104.3,447.9,198.2z M394.3,96.1c-21-23.9-46-39.8-75.5-47.6c-33.7-8.9-67.3-6.9-100.9,6.4c-1.3,0.5-1.3,1.1,0.2,1.6
	c0.4,0.2,0.7,0.2,1.3,0.2c13.3-1.3,26.8,0.5,40.3,5.1c27.9,9.7,48.7,27.4,62.4,52.9c9.5,17.7,13.7,37.9,12.4,60.6
	c-0.9,15.3-4.7,29.4-11.3,42c-15.1,28.3-37.4,46.7-66.9,55.1c-12,3.5-24.1,4.7-36.1,4.2c-23.3-1.3-44.3-9.5-63.1-25
	c-13.5-11.1-23.9-24.8-30.8-40.9c-0.2-0.5-0.5-0.9-0.9-1.1c-0.4,0-0.9,0.4-0.9,0.9v0.2c-0.4,7.7,0.9,16.1,3.6,25.7
	c13.7,48.2,42.9,82.6,87.2,103.4c20.6,9.7,43.2,14,67.5,13c8.2-0.4,14.2-0.7,18.1-1.3c5.3-0.7,11.3-2,17.9-3.8
	c29.9-8.6,54.7-23.7,74.4-45.6c25.7-28.5,39-62.2,40.1-100.9C434,161.9,421.3,126.9,394.3,96.1z M244.3,252.6
	c-21-4.4-35.9-16.1-45.2-35.2c-4.9-10.4-7.5-19.9-7.3-28.6c0.4-27.4,12.8-47.6,37.2-60.7c7.3-4,15.1-6.2,23.5-7.1
	c7.8-0.7,15.9,0,23.9,2.4c17.9,5.3,31.6,16.1,40.7,32.7c1.5,2.6,2,2.4,1.8-0.5c-1.3-16.6-6.7-31.6-16.6-44.9
	c-10.4-14-23.2-24.4-38.3-31.2c-10.8-4.7-22.6-7.5-35.4-7.8c-30.8-1.1-56.2,10.9-76.1,35.8c-13.9,17.1-20.8,36.7-20.8,58.4
	c0,12.2,2.2,24.3,6.6,35.8c5.7,14.8,14.4,27.2,26.1,37c27,22.6,57.6,28.6,92.1,17.9c2.2-0.7,2.2-1.3-0.2-1.5
	C252.7,254.2,248.7,253.5,244.3,252.6z M255.3,239.6c28.3,1.6,52.7-20.1,54.4-48.7c1.8-28.6-19.7-53.1-48.2-54.9l0,0
	c-28.3-1.6-52.7,20.1-54.4,48.7l0,0C205.5,213.4,227,238,255.3,239.6L255.3,239.6z"/>
</svg>