<?xml version="1.0" encoding="UTF-8" standalone="no"?>
<!DOCTYPE svg PUBLIC "-//W3C//DTD SVG 1.1//EN" "http://www.w3.org/Graphics/SVG/1.1/DTD/svg11.dtd">
<svg xmlns="http://www.w3.org/2000/svg" version="1.1" viewBox="0 0 512 512">
<g stroke-width="2.00" fill="none" stroke-linecap="butt">
<path stroke="#ccd8ec" vector-effect="non-scaling-stroke" d="
  M 248.50 101.04
  C 247.72 105.15 247.42 109.27 247.60 113.40
  C 247.87 119.49 248.00 122.57 248.00 122.62
  C 248.00 224.17 248.00 326.02 248.00 428.17
  C 248.00 428.48 247.68 428.70 247.39 428.58
  L 112.66 376.18
  C 112.26 376.03 112.00 375.65 112.00 375.22
  L 111.97 77.79"
/>
<path stroke="#ccd8ec" vector-effect="non-scaling-stroke" d="
  M 263.78 104.00
  C 263.93 108.70 264.01 113.37 264.00 118.00
  C 263.85 222.65 263.95 327.31 264.31 431.98"
/>
<path stroke="#d48496" vector-effect="non-scaling-stroke" d="
  M 264.31 431.98
  L 258.00 431.96"
/>
<path stroke="#abbfdd" vector-effect="non-scaling-stroke" d="
  M 258.00 431.96
  L 249.75 431.73
  C 249.42 431.72 249.12 431.58 248.94 431.35
  L 248.57 430.89
  C 248.37 430.64 248.08 430.47 247.76 430.41
  L 80.55 400.03
  C 80.27 399.98 80.06 399.73 80.06 399.43
  L 79.99 104.04"
/>
<path stroke="#f3434d" vector-effect="non-scaling-stroke" d="
  M 480.00 136.04
  L 480.00 447.13
  C 480.00 447.61 479.61 448.00 479.13 448.00
  L 265.65 448.06
  C 264.64 448.06 263.84 448.91 263.90 449.92
  C 264.20 455.23 264.07 459.91 263.50 463.96"
/>
<path stroke="#df8c9a" vector-effect="non-scaling-stroke" d="
  M 464.02 136.28
  L 464.00 431.18
  C 464.00 431.63 463.63 432.00 463.18 432.00
  L 264.31 431.98"
/>
<path stroke="#be748b" vector-effect="non-scaling-stroke" d="
  M 258.00 431.96
  C 249.33 432.11 240.67 432.18 232.00 432.16
  C 170.83 432.05 109.79 432.00 48.88 432.00
  C 48.39 432.00 48.00 431.61 48.00 431.12
  L 47.96 136.00"
/>
<path stroke="#f3434d" vector-effect="non-scaling-stroke" d="
  M 31.96 136.04
  L 32.06 447.19
  C 32.06 447.64 32.43 448.00 32.88 448.00
  L 247.26 448.25
  C 247.66 448.25 247.98 448.57 247.97 448.95
  L 247.75 463.96"
/>
</g>
<g fill="#d7e0ef">
<path d="
  M 248.50 101.04
  C 247.72 105.15 247.42 109.27 247.60 113.40
  C 247.87 119.49 248.00 122.57 248.00 122.62
  C 248.00 224.17 248.00 326.02 248.00 428.17
  C 248.00 428.48 247.68 428.70 247.39 428.58
  L 112.66 376.18
  C 112.26 376.03 112.00 375.65 112.00 375.22
  L 111.97 77.79
  L 112.00 48.96
  C 112.00 48.51 112.45 48.20 112.87 48.36
  L 248.50 101.04
  Z"
/>
<path d="
  M 263.78 104.00
  L 463.43 104.00
  C 463.74 104.00 464.00 104.26 464.00 104.57
  L 464.02 136.28
  L 464.00 431.18
  C 464.00 431.63 463.63 432.00 463.18 432.00
  L 264.31 431.98
  C 263.95 327.31 263.85 222.65 264.00 118.00
  C 264.01 113.37 263.93 108.70 263.78 104.00
  Z"
/>
</g>
<path fill="#c1cfe8" d="
  M 111.97 77.79
  L 112.00 375.22
  C 112.00 375.65 112.26 376.03 112.66 376.18
  L 247.39 428.58
  C 247.68 428.70 248.00 428.48 248.00 428.17
  C 248.00 326.02 248.00 224.17 248.00 122.62
  C 248.00 122.57 247.87 119.49 247.60 113.40
  C 247.42 109.27 247.72 105.15 248.50 101.04
  C 250.54 101.67 252.54 102.40 254.50 103.25
  C 256.62 104.17 259.71 104.42 263.78 104.00
  C 263.93 108.70 264.01 113.37 264.00 118.00
  C 263.85 222.65 263.95 327.31 264.31 431.98
  L 258.00 431.96
  L 249.75 431.73
  C 249.42 431.72 249.12 431.58 248.94 431.35
  L 248.57 430.89
  C 248.37 430.64 248.08 430.47 247.76 430.41
  L 80.55 400.03
  C 80.27 399.98 80.06 399.73 80.06 399.43
  L 79.99 104.04
  L 80.00 72.95
  C 80.00 72.42 80.48 72.03 81.00 72.12
  L 111.97 77.79
  Z"
/>
<path fill="#95afd1" d="
  M 79.99 104.04
  L 80.06 399.43
  C 80.06 399.73 80.27 399.98 80.55 400.03
  L 247.76 430.41
  C 248.08 430.47 248.37 430.64 248.57 430.89
  L 248.94 431.35
  C 249.12 431.58 249.42 431.72 249.75 431.73
  L 258.00 431.96
  C 249.33 432.11 240.67 432.18 232.00 432.16
  C 170.83 432.05 109.79 432.00 48.88 432.00
  C 48.39 432.00 48.00 431.61 48.00 431.12
  L 47.96 136.00
  L 48.18 104.68
  C 48.18 104.40 48.41 104.18 48.69 104.18
  L 79.99 104.04
  Z"
/>
<g fill="#ff4d55">
<path d="
  M 31.96 136.04
  L 32.06 447.19
  C 32.06 447.64 32.43 448.00 32.88 448.00
  L 247.26 448.25
  C 247.66 448.25 247.98 448.57 247.97 448.95
  L 247.75 463.96
  L 16.81 463.94
  C 16.36 463.94 16.00 463.58 16.00 463.13
  L 16.00 136.95
  C 16.00 136.43 16.42 136.00 16.94 136.00
  L 31.96 136.04
  Z"
/>
<path d="
  M 480.00 136.04
  L 495.14 136.00
  C 495.61 136.00 496.00 136.39 496.00 136.87
  L 496.00 463.07
  C 496.00 463.58 495.58 464.00 495.07 464.00
  L 263.50 463.96
  C 264.07 459.91 264.20 455.23 263.90 449.92
  C 263.84 448.91 264.64 448.06 265.65 448.06
  L 479.13 448.00
  C 479.61 448.00 480.00 447.61 480.00 447.13
  L 480.00 136.04
  Z"
/>
</g>
<path fill="#e73844" d="
  M 31.96 136.04
  L 47.96 136.00
  L 48.00 431.12
  C 48.00 431.61 48.39 432.00 48.88 432.00
  C 109.79 432.00 170.83 432.05 232.00 432.16
  C 240.67 432.18 249.33 432.11 258.00 431.96
  L 264.31 431.98
  L 463.18 432.00
  C 463.63 432.00 464.00 431.63 464.00 431.18
  L 464.02 136.28
  L 480.00 136.04
  L 480.00 447.13
  C 480.00 447.61 479.61 448.00 479.13 448.00
  L 265.65 448.06
  C 264.64 448.06 263.84 448.91 263.90 449.92
  C 264.20 455.23 264.07 459.91 263.50 463.96
  L 247.75 463.96
  L 247.97 448.95
  C 247.98 448.57 247.66 448.25 247.26 448.25
  L 32.88 448.00
  C 32.43 448.00 32.06 447.64 32.06 447.19
  L 31.96 136.04
  Z"
/>
</svg>
