<?xml version="1.0" encoding="UTF-8" standalone="no"?>
<!DOCTYPE svg PUBLIC "-//W3C//DTD SVG 1.1//EN" "http://www.w3.org/Graphics/SVG/1.1/DTD/svg11.dtd">
<svg xmlns="http://www.w3.org/2000/svg" version="1.1" viewBox="0 0 512 512">
<g stroke-width="2.00" fill="none" stroke-linecap="butt">
<path stroke="#801944" vector-effect="non-scaling-stroke" d="
  M 437.47 117.05
  L 452.73 132.35
  C 453.01 132.64 453.47 132.64 453.76 132.35
  C 465.17 121.05 476.31 109.92 487.20 98.96
  C 490.85 95.28 493.20 92.51 494.25 90.64
  C 496.15 87.27 497.07 83.64 497.00 79.75
  C 496.89 72.96 494.21 67.14 488.97 62.27
  C 487.48 60.89 485.84 59.43 484.04 57.88"
/>
<path stroke="#80293c" vector-effect="non-scaling-stroke" d="
  M 484.04 57.88
  C 473.37 46.99 462.53 36.07 451.53 25.13
  C 447.43 21.05 444.07 18.38 441.44 17.13
  C 435.38 14.26 429.21 14.26 422.92 17.13
  C 420.58 18.20 417.94 20.17 414.99 23.05
  C 403.06 34.70 391.27 46.49 379.60 58.40
  C 379.41 58.59 379.41 58.91 379.60 59.11
  L 437.47 117.05"
/>
<path stroke="#ff4180" vector-effect="non-scaling-stroke" d="
  M 484.04 57.88
  C 483.11 67.15 479.70 74.71 473.81 80.56
  C 461.65 92.65 449.54 104.82 437.47 117.05"
/>
<path stroke="#707b80" vector-effect="non-scaling-stroke" d="
  M 405.85 149.01
  L 420.92 164.30
  C 421.17 164.55 421.57 164.56 421.81 164.31
  L 442.26 143.86
  C 442.46 143.66 442.46 143.34 442.26 143.14
  L 427.00 127.89"
/>
<path stroke="#808080" vector-effect="non-scaling-stroke" d="
  M 427.00 127.89
  L 368.86 69.74
  C 368.66 69.54 368.34 69.54 368.14 69.74
  L 347.71 90.16
  C 347.45 90.42 347.46 90.85 347.73 91.11
  C 354.05 97.06 360.22 103.12 366.24 109.27
  C 379.37 122.68 392.57 135.92 405.85 149.01"
/>
<path stroke="#effaff" vector-effect="non-scaling-stroke" d="
  M 427.00 127.89
  C 419.51 134.54 412.46 141.58 405.85 149.01"
/>
<path stroke="#805925" vector-effect="non-scaling-stroke" d="
  M 123.30 431.10
  L 138.83 446.59
  C 139.02 446.78 139.34 446.78 139.54 446.59
  L 410.53 175.72
  C 410.76 175.49 410.75 175.12 410.52 174.89
  L 394.79 159.50"
/>
<path stroke="#80691e" vector-effect="non-scaling-stroke" d="
  M 394.79 159.50
  L 379.68 144.17
  C 379.34 143.83 378.79 143.83 378.45 144.17
  C 337.20 185.54 296.06 226.61 255.02 267.37
  C 253.01 269.36 251.22 270.52 249.63 270.84
  C 246.87 271.40 244.51 270.43 242.56 267.94
  C 241.13 266.10 240.68 264.11 241.21 261.96
  C 241.54 260.60 242.59 259.04 244.34 257.28
  C 285.59 215.81 326.72 174.55 367.74 133.51
  C 368.13 133.12 368.12 132.49 367.73 132.10
  L 337.10 101.60
  C 336.91 101.41 336.59 101.41 336.40 101.60
  L 65.41 372.47
  C 65.22 372.66 65.22 372.98 65.42 373.18
  L 96.24 404.12
  C 96.52 404.40 96.98 404.39 97.26 404.11
  C 138.96 362.41 180.48 320.89 221.81 279.56
  C 223.56 277.81 225.56 277.05 227.80 277.28
  C 229.84 277.49 231.57 278.38 232.99 279.97
  C 234.57 281.74 235.08 283.80 234.52 286.15
  C 234.17 287.64 233.11 289.28 231.32 291.07
  C 190.49 332.18 149.36 373.39 107.92 414.70
  C 107.62 415.00 107.62 415.49 107.92 415.79
  L 123.30 431.10"
/>
<path stroke="#ffc243" vector-effect="non-scaling-stroke" d="
  M 394.79 159.50
  L 123.30 431.10"
/>
<path stroke="#80694e" vector-effect="non-scaling-stroke" d="
  M 58.62 472.37
  L 65.44 479.32
  C 65.68 479.57 66.05 479.64 66.38 479.50
  L 125.10 455.35
  C 125.48 455.20 125.58 454.70 125.29 454.41
  L 111.72 440.80"
/>
<path stroke="#80785f" vector-effect="non-scaling-stroke" d="
  M 111.72 440.80
  L 57.39 386.51
  C 57.21 386.33 56.90 386.39 56.80 386.63
  L 32.64 445.35
  C 32.46 445.80 32.56 446.32 32.90 446.66
  L 58.62 472.37"
/>
<path stroke="#ffe1ad" vector-effect="non-scaling-stroke" d="
  M 111.72 440.80
  C 93.69 450.82 75.99 461.34 58.62 472.37"
/>
<path stroke="#0b1017" vector-effect="non-scaling-stroke" d="
  M 19.00 495.79
  C 20.81 496.97 22.83 497.14 25.06 496.31
  C 34.31 492.85 42.57 489.42 49.86 486.03
  C 50.11 485.91 50.18 485.60 50.00 485.42
  L 44.88 480.10"
/>
<path stroke="#171f2a" vector-effect="non-scaling-stroke" d="
  M 44.88 480.10
  L 26.58 461.71
  C 26.35 461.48 25.96 461.55 25.83 461.85
  C 22.58 469.48 19.49 477.07 16.54 484.62
  C 15.51 487.25 15.04 489.18 15.15 490.43
  C 15.34 492.73 16.63 494.52 19.00 495.79"
/>
<path stroke="#222f40" vector-effect="non-scaling-stroke" d="
  M 44.88 480.10
  L 19.00 495.79"
/>
</g>
<path fill="#000000" d="
  M 430.06 0.00
  L 434.31 0.00
  C 441.39 0.65 447.69 2.84 453.20 6.57
  C 455.23 7.94 459.99 12.35 467.48 19.81
  C 477.79 30.08 488.05 40.41 498.25 50.78
  C 502.82 55.43 505.91 59.24 507.50 62.23
  C 510.08 67.07 511.58 72.35 512.00 78.06
  L 512.00 82.56
  C 511.23 89.63 508.95 95.91 505.15 101.39
  C 503.90 103.20 499.45 107.93 491.78 115.60
  C 376.25 231.13 260.71 346.66 145.18 462.19
  C 144.16 463.22 143.13 463.98 142.10 464.49
  C 141.13 464.96 139.95 465.49 138.56 466.06
  C 102.79 480.77 67.02 495.50 31.25 510.25
  C 29.69 510.90 27.25 511.48 23.94 512.00
  L 21.44 512.00
  C 9.01 510.36 1.86 503.34 0.00 490.94
  L 0.00 488.19
  C 0.76 483.84 2.02 479.66 3.79 475.64
  C 5.22 472.39 5.94 470.74 5.96 470.69
  C 19.55 437.49 33.21 404.32 46.94 371.19
  C 47.51 369.82 48.17 368.66 48.93 367.72
  C 48.97 367.66 49.89 366.73 51.70 364.92
  C 169.95 246.67 288.19 128.43 406.44 10.19
  C 412.45 4.17 420.33 0.77 430.06 0.00
  Z
  M 437.47 117.05
  L 452.73 132.35
  C 453.01 132.64 453.47 132.64 453.76 132.35
  C 465.17 121.05 476.31 109.92 487.20 98.96
  C 490.85 95.28 493.20 92.51 494.25 90.64
  C 496.15 87.27 497.07 83.64 497.00 79.75
  C 496.89 72.96 494.21 67.14 488.97 62.27
  C 487.48 60.89 485.84 59.43 484.04 57.88
  C 473.37 46.99 462.53 36.07 451.53 25.13
  C 447.43 21.05 444.07 18.38 441.44 17.13
  C 435.38 14.26 429.21 14.26 422.92 17.13
  C 420.58 18.20 417.94 20.17 414.99 23.05
  C 403.06 34.70 391.27 46.49 379.60 58.40
  C 379.41 58.59 379.41 58.91 379.60 59.11
  L 437.47 117.05
  Z
  M 405.85 149.01
  L 420.92 164.30
  C 421.17 164.55 421.57 164.56 421.81 164.31
  L 442.26 143.86
  C 442.46 143.66 442.46 143.34 442.26 143.14
  L 427.00 127.89
  L 368.86 69.74
  C 368.66 69.54 368.34 69.54 368.14 69.74
  L 347.71 90.16
  C 347.45 90.42 347.46 90.85 347.73 91.11
  C 354.05 97.06 360.22 103.12 366.24 109.27
  C 379.37 122.68 392.57 135.92 405.85 149.01
  Z
  M 123.30 431.10
  L 138.83 446.59
  C 139.02 446.78 139.34 446.78 139.54 446.59
  L 410.53 175.72
  C 410.76 175.49 410.75 175.12 410.52 174.89
  L 394.79 159.50
  L 379.68 144.17
  C 379.34 143.83 378.79 143.83 378.45 144.17
  C 337.20 185.54 296.06 226.61 255.02 267.37
  C 253.01 269.36 251.22 270.52 249.63 270.84
  C 246.87 271.40 244.51 270.43 242.56 267.94
  C 241.13 266.10 240.68 264.11 241.21 261.96
  C 241.54 260.60 242.59 259.04 244.34 257.28
  C 285.59 215.81 326.72 174.55 367.74 133.51
  C 368.13 133.12 368.12 132.49 367.73 132.10
  L 337.10 101.60
  C 336.91 101.41 336.59 101.41 336.40 101.60
  L 65.41 372.47
  C 65.22 372.66 65.22 372.98 65.42 373.18
  L 96.24 404.12
  C 96.52 404.40 96.98 404.39 97.26 404.11
  C 138.96 362.41 180.48 320.89 221.81 279.56
  C 223.56 277.81 225.56 277.05 227.80 277.28
  C 229.84 277.49 231.57 278.38 232.99 279.97
  C 234.57 281.74 235.08 283.80 234.52 286.15
  C 234.17 287.64 233.11 289.28 231.32 291.07
  C 190.49 332.18 149.36 373.39 107.92 414.70
  C 107.62 415.00 107.62 415.49 107.92 415.79
  L 123.30 431.10
  Z
  M 58.62 472.37
  L 65.44 479.32
  C 65.68 479.57 66.05 479.64 66.38 479.50
  L 125.10 455.35
  C 125.48 455.20 125.58 454.70 125.29 454.41
  L 111.72 440.80
  L 57.39 386.51
  C 57.21 386.33 56.90 386.39 56.80 386.63
  L 32.64 445.35
  C 32.46 445.80 32.56 446.32 32.90 446.66
  L 58.62 472.37
  Z
  M 19.00 495.79
  C 20.81 496.97 22.83 497.14 25.06 496.31
  C 34.31 492.85 42.57 489.42 49.86 486.03
  C 50.11 485.91 50.18 485.60 50.00 485.42
  L 44.88 480.10
  L 26.58 461.71
  C 26.35 461.48 25.96 461.55 25.83 461.85
  C 22.58 469.48 19.49 477.07 16.54 484.62
  C 15.51 487.25 15.04 489.18 15.15 490.43
  C 15.34 492.73 16.63 494.52 19.00 495.79
  Z"
/>
<path fill="#ff5178" d="
  M 484.04 57.88
  C 483.11 67.15 479.70 74.71 473.81 80.56
  C 461.65 92.65 449.54 104.82 437.47 117.05
  L 379.60 59.11
  C 379.41 58.91 379.41 58.59 379.60 58.40
  C 391.27 46.49 403.06 34.70 414.99 23.05
  C 417.94 20.17 420.58 18.20 422.92 17.13
  C 429.21 14.26 435.38 14.26 441.44 17.13
  C 444.07 18.38 447.43 21.05 451.53 25.13
  C 462.53 36.07 473.37 46.99 484.04 57.88
  Z"
/>
<path fill="#ff3187" d="
  M 484.04 57.88
  C 485.84 59.43 487.48 60.89 488.97 62.27
  C 494.21 67.14 496.89 72.96 497.00 79.75
  C 497.07 83.64 496.15 87.27 494.25 90.64
  C 493.20 92.51 490.85 95.28 487.20 98.96
  C 476.31 109.92 465.17 121.05 453.76 132.35
  C 453.47 132.64 453.01 132.64 452.73 132.35
  L 437.47 117.05
  C 449.54 104.82 461.65 92.65 473.81 80.56
  C 479.70 74.71 483.11 67.15 484.04 57.88
  Z"
/>
<path fill="#ffffff" d="
  M 427.00 127.89
  C 419.51 134.54 412.46 141.58 405.85 149.01
  C 392.57 135.92 379.37 122.68 366.24 109.27
  C 360.22 103.12 354.05 97.06 347.73 91.11
  C 347.46 90.85 347.45 90.42 347.71 90.16
  L 368.14 69.74
  C 368.34 69.54 368.66 69.54 368.86 69.74
  L 427.00 127.89
  Z"
/>
<path fill="#ffd23b" d="
  M 394.79 159.50
  L 123.30 431.10
  L 107.92 415.79
  C 107.62 415.49 107.62 415.00 107.92 414.70
  C 149.36 373.39 190.49 332.18 231.32 291.07
  C 233.11 289.28 234.17 287.64 234.52 286.15
  C 235.08 283.80 234.57 281.74 232.99 279.97
  C 231.57 278.38 229.84 277.49 227.80 277.28
  C 225.56 277.05 223.56 277.81 221.81 279.56
  C 180.48 320.89 138.96 362.41 97.26 404.11
  C 96.98 404.39 96.52 404.40 96.24 404.12
  L 65.42 373.18
  C 65.22 372.98 65.22 372.66 65.41 372.47
  L 336.40 101.60
  C 336.59 101.41 336.91 101.41 337.10 101.60
  L 367.73 132.10
  C 368.12 132.49 368.13 133.12 367.74 133.51
  C 326.72 174.55 285.59 215.81 244.34 257.28
  C 242.59 259.04 241.54 260.60 241.21 261.96
  C 240.68 264.11 241.13 266.10 242.56 267.94
  C 244.51 270.43 246.87 271.40 249.63 270.84
  C 251.22 270.52 253.01 269.36 255.02 267.37
  C 296.06 226.61 337.20 185.54 378.45 144.17
  C 378.79 143.83 379.34 143.83 379.68 144.17
  L 394.79 159.50
  Z"
/>
<path fill="#dff5ff" d="
  M 427.00 127.89
  L 442.26 143.14
  C 442.46 143.34 442.46 143.66 442.26 143.86
  L 421.81 164.31
  C 421.57 164.56 421.17 164.55 420.92 164.30
  L 405.85 149.01
  C 412.46 141.58 419.51 134.54 427.00 127.89
  Z"
/>
<path fill="#ffb24a" d="
  M 394.79 159.50
  L 410.52 174.89
  C 410.75 175.12 410.76 175.49 410.53 175.72
  L 139.54 446.59
  C 139.34 446.78 139.02 446.78 138.83 446.59
  L 123.30 431.10
  L 394.79 159.50
  Z"
/>
<path fill="#fff0be" d="
  M 111.72 440.80
  C 93.69 450.82 75.99 461.34 58.62 472.37
  L 32.90 446.66
  C 32.56 446.32 32.46 445.80 32.64 445.35
  L 56.80 386.63
  C 56.90 386.39 57.21 386.33 57.39 386.51
  L 111.72 440.80
  Z"
/>
<path fill="#ffd19c" d="
  M 111.72 440.80
  L 125.29 454.41
  C 125.58 454.70 125.48 455.20 125.10 455.35
  L 66.38 479.50
  C 66.05 479.64 65.68 479.57 65.44 479.32
  L 58.62 472.37
  C 75.99 461.34 93.69 450.82 111.72 440.80
  Z"
/>
<path fill="#2d3e53" d="
  M 44.88 480.10
  L 19.00 495.79
  C 16.63 494.52 15.34 492.73 15.15 490.43
  C 15.04 489.18 15.51 487.25 16.54 484.62
  C 19.49 477.07 22.58 469.48 25.83 461.85
  C 25.96 461.55 26.35 461.48 26.58 461.71
  L 44.88 480.10
  Z"
/>
<path fill="#16202d" d="
  M 44.88 480.10
  L 50.00 485.42
  C 50.18 485.60 50.11 485.91 49.86 486.03
  C 42.57 489.42 34.31 492.85 25.06 496.31
  C 22.83 497.14 20.81 496.97 19.00 495.79
  L 44.88 480.10
  Z"
/>
</svg>
